<svg width="354" height="265" viewBox="0 0 354 265" fill="none" xmlns="http://www.w3.org/2000/svg">
<path fill-rule="evenodd" clip-rule="evenodd" d="M353.401 47.6076L353.138 48.8017L353.097 49.7933L352.875 50.2385L352.004 50.4004L351.215 51.3516V51.8778L351.721 52.5861L351.984 52.8695L351.903 53.8409L351.579 54.6706L351.923 55.1766L352.429 55.5409L352.369 56.1682L352.632 56.573L352.672 56.998L352.409 57.2611L352.045 57.4027L352.126 58.7384L352.571 59.9324L352.875 60.5396V60.9848L352.308 61.4098L352.085 62.1788L352.47 62.7657V63.4133L352.753 63.9598L351.964 64.3443L351.802 64.6883L352.126 65.255L352.308 66.1455L351.944 66.5704L351.438 67.7038L351.6 68.3514L351.802 68.9585L351.6 69.3835L351.68 69.9906L352.025 70.6382L352.166 71.4882L351.721 72.0347H351.073L350.507 71.8727L346.864 71.2049L346.135 70.9216L345.225 70.6787L344.779 70.8001L343.727 72.4192L343.484 73.2084L342.938 73.937L342.27 73.9977L341.562 74.4429L341.319 74.9691L341.723 75.9203L343.079 78.025L343.342 78.875L343.727 79.5834L344.456 80.5548L344.415 81.5869L344.557 82.9833L344.678 83.9345V85.8975L345.326 86.4035L345.427 87.4154L345.467 88.4475L345.164 88.9939L345.123 89.763L345.306 90.3499L345.265 91.3415L344.881 91.4427L343.504 91.301L342.857 91.6855L342.796 92.1308L342.978 93.1224L343.423 93.4058V94.0534L343.302 94.3569L343.019 93.9522L341.197 93.5474L340.691 92.9605V91.807L339.7 90.9772L338.951 91.301V92.5355L338.87 93.7093L339.295 94.5391L338.87 95.6117L337.716 95.7736L336.806 97.0081V98.2628L334.58 100.084L333.244 100.246L332.252 100.833L333.487 101.744L334.741 102.978L334.822 103.808L334.074 105.387L332.576 105.123L330.269 105.387L329.014 104.881L328.022 105.306L327.193 104.557L326.282 104.051L325.209 102.391L324.137 103.727L324.056 105.629L324.137 106.216L323.631 107.208L322.72 110.021L321.648 110.507L320.656 112.409L319.179 113.421V114.413L318.511 115.89L317.013 117.145V120.342L316.629 119.371L314.989 121.293L313.735 121.374L313.067 121.597L312.46 121.071L310.942 122.143H309.647L309.424 123.317L308.695 123.236L306.166 125.139L304.749 126.231L305.215 127.365L305.053 127.81L303.413 128.518L302.503 129.915L301.835 129.895L301.147 130.785L300.418 130.906L300.276 129.975L299.366 129.389L299.851 128.518L300.782 128.458L301.369 127.648L302.665 127.83L303.13 127.486L303.272 126.839L302.624 126.717L302.482 126.151L303.575 125.402L304.101 124.37L302.745 125.402L301.491 125.847L300.965 125.24V124.531L301.45 124.329L301.531 123.54L300.276 122.285L300.54 120.808L300.398 120.383L301.491 120.322L301.612 118.905L302.826 117.327L303.09 116.558L303.778 116.153L303.656 115.202L301.106 113.684L299.325 111.559L298.921 112.692H297.929L297.403 112.348L296.107 112.389L295.359 113.644L294.893 113.907L294.671 115.202L293.497 116.517L293.375 118.764L292.768 118.905L291.858 120.464L290.643 120.504L288.599 121.637L287.992 124.531L287.547 125.199L287.911 125.503L288.114 126.879H287.304L287.648 127.446L287.081 128.66L285.604 128.7L283.742 128.741L281.577 127.972L281.435 128.62L280.747 129.146L280.605 130.319L280.443 130.927L280.484 131.473L279.958 131.959L280.565 133.315L280.707 134.569L281.921 135.258L283.823 136.553L284.046 137.261L284.916 138.738L284.956 138.212L285.341 138.819L285.827 138.131H286.474L286.555 138.678L287.162 138.334L288.68 138.293L288.943 139.386V140.944L290.502 143.98L292.019 144.02L293.112 143.373L294.246 143.798L294.752 143.332L295.359 142.24L294.853 141.551L294.59 141.369L296.148 140.762L296.937 140.115V139.082L296.452 138.678L297.848 138.637L300.438 137.423L300.782 137.909L301.45 138.172L302.098 139.163L302.786 139.467L303.535 140.115L307.178 139.993L307.643 139.467L308.918 139.426L308.817 139.912L310.436 139.851L311.772 139.609L312.5 139.953L311.245 140.337L311.164 140.985L312.116 142.341H311.508L310.78 142.725L310.901 143.94L311.812 144.122V144.628L310.375 145.842L308.999 144.891L308.857 144.284L308.351 144.931L307.906 144.243L306.692 145.842H305.963L304.911 146.712L303.879 146.672L303.616 147.36L302.665 146.631L301.349 146.793L302.665 147.623L302.786 148.533L301.349 148.797L301.309 150.011L299.568 149.93L298.657 150.922L299.184 151.61L300.276 152.277L299.224 153.492L298.657 153.148L297.625 154.827L296.796 155.091L296.411 154.827L296.107 156.487L296.593 157.782L296.107 159.725L296.148 162.599L296.593 162.558L299.528 163.934V164.764L300.357 164.299L303.535 165.898L305.255 169.5L305.66 169.581L305.093 170.937L306.226 171.321L306.348 173.021L308.473 174.58L308.513 176.259L310.031 178.445L311.164 178.91L312.338 178.829L312.945 179.315V179.74L314.281 181.379L315.03 181.703L315.86 183.342L315.192 183.727L312.864 182.857L311.205 183.828L310.072 182.654L309.222 182.614L307.947 181.744L306.125 181.481L305.397 182.472H304.263L303.535 181.865L302.826 180.125L301.309 180.732L300.438 180.388L300.135 180.732H299.406L298.718 180.529L297.666 181.035L296.33 183.646L297.929 181.703L299.184 181.258L300.661 181.44L301.956 180.914L302.563 181.177L302.624 181.784L304.101 183.12L305.012 183.342L306.874 182.047L308.007 182.088L310.294 184.334L312.197 185.427L315.151 187.248L316.548 189.515L316.507 190.325L314.949 190.507L313.593 192.065L312.905 191.984L312.338 192.49L312.257 193.502L311.245 193.967L309.869 193.279L309.08 193.846L308.351 193.805L307.036 194.878L306.914 196.234L307.259 195.242L308.432 194.271L309.606 194.008L310.78 195.708L311.691 196.011L313.472 194.494L314.807 194.716L316.669 197.104L316.973 196.578L317.458 197.185H318.592L318.754 197.529L316.204 199.917L314.645 200.221V201.273L315.414 201.395L316.892 200.14L318.106 200.403V199.877L317.883 199.573L318.592 198.885L319.199 199.27L319.361 200.97L319.705 201.678L318.976 202.245L318.915 201.84L318.227 201.476L318.065 202.042L317.721 202.305L316.629 202.022L315.414 203.074L315.313 203.58L317.195 203.499L317.823 204.086L317.661 204.552L317.276 204.471L316.487 205.179L317.215 205.564L317.721 206.11L317.074 206.717L316.305 206.575L315.819 206.96L316.325 207.446L317.398 207.527L318.025 208.579L317.236 209.105L317.013 210.259L316.71 209.834L316.507 208.903L315.576 209.044L314.726 211.068L314.079 211.594L312.5 211.089L313.593 211.716V212.323L314.038 213.031L313.37 213.456L313.289 214.246L313.775 214.893L313.37 215.318L313.411 216.33L312.46 216.796L311.691 215.966L311.427 216.978L312.298 217.059L313.067 218.01L311.772 217.929L311.691 218.617L310.254 220.135H309.505L309.606 219.022L308.999 219.103L308.655 219.022L308.432 219.973L307.684 219.791L308.169 220.398L307.562 220.924L308.473 221.005L309.262 222.057H308.048L309.424 223.272L310.132 222.624L310.739 223.272L308.837 224.101L307.643 224.931L307.461 225.801L307.886 225.376L308.776 225.316L309.424 225.963L308.108 227.056L309.06 227.36L308.918 228.129L308.129 228.351L308.351 228.999H308.918L309.343 229.829L309.262 231.205L308.655 230.254H308.048V229.464L307.178 228.695L306.773 229.383H306.166L306.085 230.294L307.097 231.043L307.036 231.994L306.651 231.427H306.085L305.66 230.861L304.83 231.083L305.437 231.549L305.599 232.601H306.388L306.53 232.905L305.862 233.674L304.688 232.864L304.526 233.593L304.911 234.16L305.862 234.463L305.437 235.677L303.879 234.726L303.272 235.293L302.826 234.848L301.956 236.062L300.054 236.163L301.491 237.236L302.32 236.932L303.312 237.155L302.867 238.065L302.219 238.146L302.057 239.32L301.41 238.551L300.701 239.583L300.357 239.806L300.276 239.32L299.75 239.361L299.568 240.271H299.022L298.759 241.627H297.666L297.544 241.101L296.107 241.324L295.723 241.931L295.156 241.749L295.682 242.923L295.278 244.137L294.812 244.845L295.237 245.574L294.286 245.999L293.679 245.837L293.274 246.363L293.153 245.695L292.627 246.181L291.939 246.869L290.643 247.051L290.502 247.618H289.55L289.47 247.274H288.862L288.68 248.265L288.114 248.751L287.243 247.78L286.818 247.092L286.555 247.658L285.645 247.881L285.564 248.65L284.653 248.872L283.742 248.346L283.216 248.832L282.184 249.176L282.042 250.309L279.998 251.301L279.877 250.836L280.605 250.471L281.172 249.662L280.423 249.844L279.249 248.711L279.087 247.962L277.651 247.253L277.084 246.747L277.347 247.375L277.266 248.205L277.529 249.217L277.711 250.613L276.801 251.078L276.295 251.949L275.748 252.353L275.283 251.969L274.979 251.686L274.858 252.151L274.129 253.143L273.016 254.215L271.761 254.843L271.094 255.045L269.98 254.66L268.867 254.984L267.896 254.964L268.321 255.713L267.087 256.381L266.054 256.745L265.123 256.401L264.698 257.251L263.585 257.413L262.978 258.04L262.675 258L262.917 257.696L262.391 257.615L262.331 257.352L262.533 257.19H262.229L261.966 256.745L261.865 256.441L261.46 256.866L261.197 256.907L261.359 257.514L261.177 258.263L260.368 258.91L260.104 259.376L260.529 260.428H261.218L261.825 261.582V261.906L262.27 261.987L262.553 262.513L261.562 263.767H260.914L260.873 263.444L259.639 263.201L259.173 263.97L258.931 264.213L258.769 262.978L258.809 262.452L257.979 261.946L256.603 260.044L256.624 259.376L257.413 258.364L257.615 257.352L258.465 257.251L258.404 256.866L257.797 256.603L256.968 256.866L256.138 256.097L255.571 257.089L254.782 257.028L254.175 257.231L252.778 256.057L252.212 256.259L251.139 255.166L250.593 254.134L250.33 255.268L250.37 255.855L249.439 256.259L248.751 255.956L248.306 256.199L247.942 256.097L247.699 255.976L246.99 255.591L246.302 255.794L245.796 255.409L244.623 255.753L243.469 255.187L242.356 254.681L242.012 253.851L239.705 253.021L239.361 251.827L238.713 251.584L239.28 249.48L240.11 249.358L240.332 248.225L239.32 247.456L237.802 248.063L237.337 247.496L234.746 247.537L234.241 246.788L232.966 246.545V245.796L231.731 244.805L230.942 245.594H229.525L228.291 246.282L228.372 248.063L226.449 248.711L225.336 248.063L223.919 248.468L223.717 249.318L222.442 249.945L222.159 249.115L221.511 249.075L220.904 249.884L219.73 248.751L218.88 249.378L218.678 250.471L217.888 250.491L217.382 250.087L217.443 249.196L216.694 249.115L215.5 249.601L214.873 250.147L214.569 250.714L214.104 250.795L213.699 251.139L213.659 251.038L211.514 251.119V251.949L210.724 252.495L210.805 254.438L211.21 255.632L211.291 257.008L211.635 258.445L210.643 258.202L209.146 258.647L208.66 257.696L207.931 257.17L208.397 256.745L208.539 255.672L207.405 255.308L204.815 256.421H203.52L202.751 257.17L201.415 256.502L201.051 255.43L201.374 253.891L200.585 252.859L199.715 253.649L199.432 253.325L197.61 253.122L196.74 253.527L196.538 252.738L197.61 251.665L198.946 249.803L198.905 248.974L199.391 247.982V247.112L198.238 246.383L196.618 246.586L196.416 247.031L195.971 246.282L196.254 245.756L194.757 245.432L194.109 244.521L194.473 243.53L194.19 242.518L192.692 242.902L191.984 242.315L192.369 241.627L192.105 240.717L189.515 241.243L188.139 242.234L187.613 240.919L187.775 239.543L186.985 238.814L186.56 238.065L185.589 237.641V236.689L186.115 235.839L185.629 235.091L186.075 234.099L186.864 233.269L187.613 233.552L188.058 232.905L187.572 231.772L187.856 231.002L188.402 230.82L188.523 229.748L189.596 229.262L189.839 228.554V227.4L190.183 224.951L190.041 223.231L189.09 221.268V219.548L188.058 218.374L187.066 218.435L186.742 216.654L185.629 215.824L184.881 214.286L183.565 214.246L182.695 214.752L181.359 214.165L180.408 214.63L179.518 213.719L178.425 213.254L177.737 213.537L176.482 213.335L176.199 212.384L177.109 211.392V210.603L176.28 209.49L176.037 208.619L175.288 208.842L174.58 209.044L174.134 208.134L174.964 206.555L174.721 206.029L173.932 206.231L173.305 205.402L172.394 205.118L169.925 206.555L170.087 207.587L169.459 208.174L167.274 207.466L165.776 207.891L164.744 206.393L163.469 207.304L162.639 207.466L162.72 208.7L161.445 210.319L159.32 210.825L158.086 211.008L157.135 212.202L156.73 213.375L155.536 213.699L155.516 214.448L154.625 214.165L153.775 214.812L153.188 216.188L152.257 216.269L150.153 216.775L149.363 216.836L149.12 216.856L148.169 215.622L146.732 215.581L145.235 216.148L144.162 215.662L141.39 215.359L140.803 214.408L139.001 214.671L136.188 216.31L134.893 218.84L133.76 219.386L133.699 219.426L132.586 218.597L132.505 217.14L131.837 215.946L130.522 216.107L129.49 217.018H129.328L128.275 216.937L126.717 217.443L126.13 217.18L124.693 217.807L123.702 217.565L122.548 215.986L120.848 215.318L120.504 213.962L119.108 213.254L116.963 213.011L115.93 214.165L114.676 214.549L113.988 215.156L112.369 214.367L111.417 214.59L110.75 213.254L111.094 210.906L109.636 210.704L107.815 211.19L106.419 209.955L106.257 208.377L105.042 207.628H103.848L103.444 207.142L102.776 207.749L102.654 209.449L102.068 209.712L101.582 208.458L100.55 207.264L100.084 206.515L98.8497 205.908L97.5343 205.867L95.8343 204.086L94.9641 203.459L93.6081 203.378L93.0212 202.791L90.9165 202.022L89.4999 202.143L88.8118 203.176L88.1844 202.872L87.0309 202.933L86.6059 202.305L84.9261 201.435L84.6833 201.759L84.5821 201.88L84.1773 200.929L83.1857 200.767L82.5178 199.411L81.6476 199.128L80.5345 197.914L79.2191 197.711L78.6726 197.084L77.3977 197.043L76.7298 198.136L75.4548 197.509L75.0703 196.274L74.5441 196.092V195.242L73.8358 194.23L73.2084 193.826L73.593 193.117L72.9656 192.045L73.2084 189.819L71.6906 189.029L71.6096 188.078L71.2251 187.35L71.1847 187.37L68.8776 185.933L67.4204 186.014L66.8538 184.435L65.2752 183.828L63.6157 184.739L60.4789 182.614H59.2848L58.536 183.99L57.0992 184.071L55.3992 185.609L53.6992 188.402L53.3552 188.786L53.2135 187.552L51.7766 187.188L50.3802 187.734L48.6398 187.37L47.9314 185.892L45.9279 185.063L43.7827 184.537L41.7184 182.675L41.4351 180.975L40.5244 177.089L39.472 175.389L39.4316 173.608L40.403 173.203L40.5649 171.989L42.1637 170.957L42.1232 169.561L40.4839 169.095L40.1399 167.942L38.6221 167.031L37.0435 165.715L35.89 164.258L34.7364 164.683L33.9067 165.007L33.0769 164.218L32.834 161.951L35.6066 160.089L35.2221 159.118L39.2899 158.288L41.8601 157.215L43.0137 155.232L42.103 154.969L43.8434 153.492L43.5803 152.52H41.1315L40.403 153.431L38.2375 153.694L37.9542 152.48L36.2947 152.864L33.7043 154.504L32.915 155.192L32.6721 156.244L31.7412 157.074L29.7579 157.985L29.5555 158.571L28.5639 159.3H27.127L26.0949 158.895V158.106L25.2246 156.952L25.1437 154.726L24.9615 153.552L25.0627 152.116L24.6377 151.043L23.6866 151.083L23.3628 150.011L23.6056 148.675V147.764L22.5735 147.238L21.5818 146.53H20.2259L19.639 147.562L19.4366 149.222L18.7283 149.849L18.2426 150.618L18.5259 152.197L17.7367 153.431L16.5021 153.552L16.3402 152.945H15.7533L15.3081 153.552L14.0534 153.896L13.9724 154.686L14.5188 155.212L14.5593 156.123L12.576 155.961L11.9486 155.131L11.3617 154.726L10.7141 155.333L10.0463 155.455L9.41892 156.366L8.18441 157.074L6.28206 157.479L5.41184 157.114L4.66304 156.143L5.08803 152.52L6.28206 149.707L6.82848 149.06L6.66658 147.481L5.49279 146.995L4.88566 145.376L5.41184 144.223L5.12851 142.928L3.50949 142.968L2.51783 143.515L1.04047 141.369L1 139.588L2.15355 138.678L4.72375 139.042L5.75588 138.759L5.91778 137.443L8.14394 136.654L7.77966 135.743L7.27372 135.278L9.76296 134.711L11.7058 133.881L11.7463 132.728L9.96534 131.858L10.0463 130.502L11.5034 129.955L13.0212 128.842L14.1748 128.923L15.9962 127.061L17.2307 128.336L17.6962 129.166L20.5092 128.721L22.4925 128.842L24.1116 127.021L23.808 125.867L20.9949 123.661L20.2664 123.499L20.0842 125.118L19.0926 126.191L18.0605 125.827L17.0283 124.835L14.4784 124.086L13.4058 123.418L14.2558 121.982L16.0772 119.168L15.9962 117.974L15.4093 117.893L15.5914 117.367L16.8462 116.558L16.4414 115.89L17.514 114.736L19.4164 114.979L20.408 115.566L24.6377 115.971L28.1996 115.89L29.9805 115.607L29.94 114.089L29.596 112.794L29.4746 111.559L30.1424 111.195L31.215 111.397L32.571 111.478L33.1983 111.195L35.0197 111.134L36.2138 111.842L38.5411 112.47L41.678 112.875L42.7506 112.429L43.7827 111.519L45.0981 111.923L46.5148 111.721L49.2469 111.053L52.1814 111.842L53.9016 111.235L57.423 111.438L59.8313 112.389L60.8634 112.146L63.2919 114.939L65.8621 115.607L66.9347 114.979L66.8942 113.482L67.9668 112.753L68.1288 112.085L68.6549 111.802L67.6835 110.689L68.0478 109.657L68.7561 109.029L68.2907 106.682L67.0562 105.771L66.8538 104.82L65.7812 103.079L65.5788 101.885L65.0728 101.137L64.9919 100.266L64.4455 98.5664L65.255 97.7569L65.2347 97.2307L63.8991 97.0688L62.3205 97.17L61.3289 96.4009L61.3491 95.6117L62.4015 94.6403L63.3526 94.2355L64.061 94.5998L64.8705 94.62L66.6514 93.9319L69.1609 93.4058L70.5371 93.082L71.2656 92.7379L71.9335 93.3248H72.8442L73.512 92.9201H74.2406L74.3822 92.0094L74.9084 90.8356L73.593 90.2689L72.9251 89.763L73.2084 88.8927V86.3428L73.7549 83.0238L73.8358 81.7488L74.3418 80.0893L74.8275 77.4988L75.4953 77.4179L76.8108 77.5798L79.0369 78.3691L80.575 78.4905L82.8011 77.9846H83.7928L84.0964 78.6524L84.6226 78.8548L85.4523 78.5715L86.444 77.4179L87.6785 76.9524L89.1356 75.3334L89.2975 74.5644L88.2249 73.1073L87.1118 70.8406L87.0309 68.3918L87.2332 67.0764L88.2654 66.3276L89.9653 65.7002L90.6534 64.4657L90.3296 63.8586L90.3701 62.9479L91.9082 61.3289L92.8189 60.8229L93.851 59.7098L93.7093 59.5479H94.4176L95.5712 59.9729H96.0569L96.0771 59.9932L96.1783 60.5193L96.1379 61.7943L96.4617 62.1384L96.9069 62.8872L97.2712 62.786L97.3521 62.4419L97.5343 62.361L97.8378 62.9479L97.8985 63.6967L98.1616 64.4252L98.7688 64.9919L99.4366 65.255L100.287 66.2264L101.44 66.955L102.25 67.9669L102.27 68.3514L102.553 69.2014L103.687 69.9299L104.233 69.9097L104.435 69.2418L104.881 68.7359L106.014 68.2097L107.087 68.1895L107.39 68.6954L108.301 69.7275L108.888 69.9502L109.515 69.6871L110.082 69.1406L110.952 69.0597L111.903 69.424L112.328 70.1121L113.178 70.3752L114.089 71.1037L114.736 72.0347L114.878 72.9454L115.202 73.9775L115.809 74.8275L116.194 75.8191L117.104 76.5679L117.934 76.9727L118.642 78.1667L119.128 78.875L119.209 80.15L118.946 80.8786L119.229 82.2345L119.877 83.0035L119.513 84.0357L118.703 84.6833L118.339 85.2702V86.1202L118.541 87.0309L119.836 88.9939L121.071 89.7225L126.697 90.9165L129.186 90.876L130.744 90.7141L131.25 90.2891L131.635 90.188L135.521 91.0784L137.302 92.232L137.787 92.8998L138.799 93.082L139.325 93.0617L140.054 93.2236L142.159 94.7414L143.515 95.5307L145.134 95.551L145.66 95.4093L146.044 95.5712L146.186 96.5831L146.449 97.2307L146.995 97.3117L147.866 97.6152L148.695 98.5057L148.797 99.2342L149.444 100.894L150.436 102.088L151.65 103.869L152.136 105.103L153.431 107.592L154.423 107.916L155.576 107.795L157.843 107.552L160.494 107.714L163.955 107.511L168.731 107.916L171.443 107.633L173.345 106.945L173.669 106.297L174.316 105.892L175.207 106.115L178.688 106.014L182.816 106.479L184.354 106.52L186.236 108.382L189.839 110.021L193.482 111.397L195.141 111.559L197.205 112.632L199.189 112.348L201.617 111.64L201.84 112.51V113.138L203.52 113.623L204.896 113.583L205.928 112.713L208.397 110.729L210.016 108.908L213.234 107.835L217.342 106.398L219.204 105.852L220.803 105.306L223.17 105.063L224.769 104.982L226.348 103.828L227.886 102.796L229.242 102.715L231.063 102.128H232.014L232.844 100.226L234.322 97.7974L236.851 94.9843L237.6 93.8712L238.167 92.7784V92.0903L235.819 90.6332L233.249 88.9534L233.33 88.1642L233.208 86.9094L233.289 84.3999L234.119 83.2059L235.435 82.2143L237.681 81.7488L239.077 81.7893L240.494 82.7809L242.214 83.4083L243.631 83.6916L244.825 84.2785L245.412 84.1571L245.736 83.2464L246.525 82.4166L247.8 81.4655L248.872 80.6762L249.945 78.4096L250.613 77.9036L252.03 78.1869H253.385L255.956 76.4667L257.15 76.1632L257.777 75.4144L257.676 74.2203L257.939 72.4799L258.931 70.962L259.376 70.2537L260.003 70.3752L260.793 70.2537L261.197 69.6466L261.238 68.5537L261.703 68.4323L262.735 69.1811L263.646 68.5942L265.204 67.3597L266.237 65.9228L267.228 65.7002L268.847 66.4085L269.515 65.9633L270.709 65.8014L271.255 66.3276L272.105 66.53L272.571 65.8419L272.611 65.0526L273.016 64.3848L273.057 63.3931L272.652 62.6038L272.611 61.6122L270.486 60.0944L268.827 58.0099L266.763 56.1075L265.265 54.2861L262.695 53.6183L262.108 54.1242L260.55 54.6099L260.469 55.7028L260.631 56.9373L259.214 59.0825L258.06 57.9289L255.571 57.5242H253.264L251.443 58.9206L248.711 57.6051L247.8 55.7837L248.528 53.2945L248.367 52.1409L248.872 50.4814L248.609 48.579L249.864 39.6542L249.783 39.5732L250.431 39.3709L251.24 39.4923L251.422 39.897L252.475 39.6947L254.134 39.9375L254.964 40.6458L255.612 40.5244L258.344 37.934L259.659 37.0233L261.703 36.6792L262.594 35.809L262.917 34.6959L262.695 33.5221L262.27 33.259L261.804 33.5828L261.4 33.259L260.813 33.1578L260.712 31.5591L261.015 31.0734L260.995 29.4139L260.59 28.402L260.793 27.7341L261.481 27.3698L261.602 26.277L260.914 25.5687L260.752 24.3342L260.954 23.7068L260.368 22.7556L260.449 21.8044L261.116 20.6509L261.825 20.064L262.068 18.7485L262.816 17.6355L263.504 17.089L263.606 15.7331L263.342 15.0248V14.1546L262.513 13.5272L262.068 12.4546L261.238 11.0987L260.529 10.9368L259.76 11.2606L258.465 12.0498L257.899 11.9689L257.514 11.5034V10.107L257.899 9.60106V9.0344L258.344 8.44751L258.668 7.3749L259.497 6.38325V5.67493L260.125 5.14875L261.602 4.98685L262.31 4.72375L263.059 4.68328L263.262 4.4809L264.091 4.56185L264.962 4.19757L265.407 3.32735H266.398L267.066 2.57855L268.301 2.78093L269.009 2.6595L270.203 2.69997L270.709 2.25474H271.154L271.498 1.38452L273.138 1.18214L273.441 1L274.089 1.18214L274.999 1.26309L275.789 1.82975L277.61 1.99165L278.359 2.61902L278.561 3.12497H279.877L280.626 2.86188L281.01 3.24639L282.042 3.7321L282.487 3.52972L282.406 2.8214L282.953 2.4976L283.439 2.69997H284.268L284.673 2.4976L285.28 3.16544L285.847 3.08449L286.596 3.38806L286.96 3.894L286.798 4.50114L287 5.08803L287.628 5.10827L287.911 5.53327L288.478 5.08803L289.267 5.2297L289.449 5.75588L289.146 6.32254L289.409 6.82848L290.36 7.09158L290.927 7.01062L291.311 7.3749L291.331 7.92132L291.898 8.24513L292.303 8.89274L292.363 9.68201L292.647 10.3701V10.9368L292.869 11.301L294.347 11.382L294.509 12.0296L294.185 12.7986L294.306 13.426L295.602 14.2153L296.087 15.1665L296.796 16.0569L296.998 16.8867L297.585 17.17L297.949 18.1212L298.678 18.6676L298.637 19.1735L298.475 19.8009L298.799 20.0033L299.346 19.72L299.892 20.6104L300.034 21.3187L301.126 22.7961L303.211 24.1116L303.575 25.1842L303.778 26.358L304.203 26.7222L304.284 27.8758L304.931 28.2603L305.559 28.3817L305.801 29.3734L305.68 30.1627L306.307 31.2757L307.582 32.5912L308.534 32.9352L308.958 33.6638L309.687 33.7852L310.274 33.5828L310.861 33.9269L311.306 33.6638L312.5 33.8257L313.127 33.34H313.917V33.6233L313.451 34.1293L313.836 34.4531L315.111 34.5745L315.677 34.8578L316.062 35.3233L316.77 35.7685L316.932 35.3233L317.499 35.1007L318.106 35.2626L318.329 34.5745L318.915 34.4935L319.34 34.9185L319.563 35.5459L320.17 36.234L320.798 36.3149L320.96 36.8816L321.567 37.3876L321.87 37.3673L322.396 37.8935L322.538 38.4602L323.773 39.0268L324.076 39.2899L324.623 39.3506L325.209 39.8161L325.999 39.9577L326.586 39.7756L327.274 39.6947L327.881 39.2494L328.326 39.1482L328.771 39.3506L328.65 40.0994L328.144 40.8077L328.184 41.597L328.286 42.2649L329.237 42.1839L329.48 43.216L329.824 44.147L329.642 45.2196L329.358 45.5434V46.3731L330.471 47.7493L330.957 48.0529L331.868 49.2267L332.171 49.8136L333.062 49.5505L333.811 49.004L334.62 49.0243L335.146 49.7731L335.43 50.5219L336.138 50.2588L336.624 49.7933L337.433 49.9957L337.979 49.7933L339.599 49.4897L340.327 48.8219L340.914 48.5588H340.934L340.833 47.9314L341.116 46.8791L341.865 46.4946V45.5839L342.209 44.7339L342.938 44.6327H344.091L344.395 43.4791L345.002 43.3577L345.589 43.1756L345.731 42.3053L346.378 41.7387L347.309 41.6173L347.876 41.0304L348.969 41.4351L349.596 41.9411L350.547 41.9815L350.871 42.6089L351.438 43.641L350.871 44.1672L351.073 44.7541L352.025 45.7862L352.146 46.616L352.692 47.1826L353.401 47.6076Z" fill="white" stroke="#002588" stroke-width="0.202378" stroke-miterlimit="10"/>
<path d="M163.798 149.011H161.862C161.748 148.454 161.547 147.965 161.261 147.544C160.98 147.122 160.637 146.768 160.231 146.482C159.83 146.191 159.386 145.972 158.896 145.827C158.407 145.681 157.897 145.608 157.367 145.608C156.399 145.608 155.522 145.853 154.737 146.342C153.956 146.831 153.334 147.551 152.871 148.504C152.413 149.456 152.184 150.624 152.184 152.008C152.184 153.392 152.413 154.56 152.871 155.512C153.334 156.464 153.956 157.185 154.737 157.674C155.522 158.163 156.399 158.408 157.367 158.408C157.897 158.408 158.407 158.335 158.896 158.189C159.386 158.044 159.83 157.828 160.231 157.541C160.637 157.25 160.98 156.894 161.261 156.472C161.547 156.046 161.748 155.556 161.862 155.005H163.798C163.652 155.822 163.387 156.553 163.002 157.198C162.617 157.843 162.138 158.392 161.566 158.845C160.993 159.292 160.351 159.633 159.638 159.867C158.93 160.101 158.173 160.219 157.367 160.219C156.003 160.219 154.791 159.886 153.73 159.22C152.668 158.554 151.833 157.607 151.224 156.379C150.616 155.151 150.311 153.694 150.311 152.008C150.311 150.322 150.616 148.865 151.224 147.637C151.833 146.409 152.668 145.462 153.73 144.796C154.791 144.13 156.003 143.797 157.367 143.797C158.173 143.797 158.93 143.914 159.638 144.149C160.351 144.383 160.993 144.726 161.566 145.179C162.138 145.626 162.617 146.173 163.002 146.818C163.387 147.458 163.652 148.189 163.798 149.011ZM166.926 160V144.016H168.861V151.134H177.384V144.016H179.32V160H177.384V152.851H168.861V160H166.926ZM185.13 144.016V160H183.195V144.016H185.13ZM201.686 144.016V160H199.813L191.103 147.45H190.947V160H189.011V144.016H190.884L199.626 156.597H199.782V144.016H201.686ZM206.215 160H204.186L210.055 144.016H212.053L217.922 160H215.893L211.116 146.545H210.991L206.215 160ZM206.964 153.756H215.144V155.473H206.964V153.756Z" fill="#FD9100"/>
</svg>
