<svg width="163" height="159" viewBox="0 0 163 159" fill="none" xmlns="http://www.w3.org/2000/svg">
<path fill-rule="evenodd" clip-rule="evenodd" d="M114.716 74.0179L114.089 75.5762V76.1631L114.494 75.9608L115.02 74.5846L114.716 74.0179ZM116.295 75.7584L115.708 75.212L115.829 76.3251L116.457 76.7905L116.295 75.7584ZM117.307 74.9691L116.639 75.3334L116.861 76.0012L117.246 76.2846L117.388 75.5762L117.307 74.9691ZM117.873 75.3941V76.3858L118.258 76.0012L117.873 75.3941ZM161.202 35.1209L162.315 34.0888L162.194 33.2186L161.931 32.9352L161.04 32.0245L159.948 31.5591L159.26 31.8424L158.005 31.64L157.721 30.6888L158.632 29.6972V28.9079L157.802 27.7948L157.56 26.9246L156.811 27.1472L156.102 27.3496L155.657 26.4389L156.487 24.8604L156.244 24.3342L155.455 24.5365L154.827 23.7068L153.917 23.4235L151.448 24.8604L151.61 25.8925L150.982 26.4794L148.797 25.771L147.299 26.196L146.267 24.6985L144.911 25.6294L144.081 25.7913V27.0258L142.806 28.6448L140.681 29.1508L139.447 29.3329L138.496 30.5269L138.091 31.7007L136.897 32.0245V32.7733L136.006 32.49L135.156 33.1376L134.569 34.5138H133.638L131.615 35.0197H130.825L130.461 36.3959L130.744 37.7721L132.525 38.5411V40.1601V41.0708L130.218 41.8196H128.64L126.616 42.3863L125.422 41.8601L124.127 42.022L122.973 43.4184H121.455L118.602 41.6577L117.813 42.1434L115.789 41.7387L114.676 39.9577L115.08 39.0066L115.222 37.6911L114.109 36.8614V35.4042L113.441 34.2102L112.126 34.3721L111.094 35.2828H110.932L111.316 36.4971L110.81 39.2292L111.903 41.4756L111.478 44.1267L107.916 44.8755L105.69 43.8434L104.435 44.5112L99.4771 42.6898H97.4533L96.3807 43.2767L93.3046 42.447L91.8272 41.1315L91.4832 39.6339L88.7511 38.9661L85.8166 39.7958L84.8249 38.8851L81.9309 39.128L80.0286 37.8935H78.45L77.3572 37.1245L75.131 36.6185L73.3906 34.4733L70.7394 32.7329L68.7156 32.1662L67.724 31.4579H66.6919L65.7002 30.6281L64.4455 30.5067L64.1217 29.0698L65.4371 27.046V25.1437L66.3478 22.0675L66.2062 20.0438V20.1652L65.8014 19.214L64.8098 19.0521L63.9598 17.7164L63.1705 17.5343L62.0574 16.32L60.742 16.1176L60.1955 15.4902H58.9206L58.2527 16.5831L56.9777 15.9557L56.5932 14.7212L56.067 14.5391V13.4867L55.3587 12.4748L54.7313 12.0701L55.1159 11.3617L54.4885 10.2891L54.7313 8.06298L53.2135 7.41538V6.4642L52.829 5.73564L50.5219 4.29875H49.0648L48.4981 2.72021L46.9196 2.11307L45.26 3.02378L42.1232 1H40.9292L40.1804 2.37617H38.7435L37.0435 3.91423L35.3435 6.70706L34.9995 7.09156L33.8662 8.36655L33.1578 8.24513L32.1055 8.93321L31.0329 9.29749L29.2115 11.0379L29.5353 11.5236L30.1222 13.5474L29.8389 16.401L29.6567 17.7569L28.746 18.4652L27.1068 20.2866L27.8353 20.8533V21.9259L27.2079 23.3425L25.3461 24.2532L24.0711 26.0746L23.808 27.9365L23.1604 29.171L20.5092 31.0329L19.3962 34.4126L17.5748 36.4364L14.5593 36.6185L12.4141 37.7316L11.5844 37.5697L11.3415 36.5578L10.107 36.0316L9.35821 36.5578L8.28561 37.1042L8.04275 38.0959L6.50468 40.2815L5.65469 40.5851L4.74399 42.8922V44.3291H5.69517L7.0511 44.7946L7.67847 44.4708H8.75107L9.58082 46.2315V47.6481L9.84392 49.6719L11.7058 50.8659H12.8189L13.6081 51.5338L13.3046 52.323L14.4379 53.8004L15.7129 57.4432L15.551 58.2729L15.9962 58.7991L14.9236 59.1836L13.3653 60.0336L12.8189 59.3658L13.2843 58.536L11.9486 58.961L11.5034 59.4467L9.21655 60.2765L5.29041 60.0741L4.33924 60.5598L3.46901 60.3574L2.98331 61.7943L2.19403 62.0169L1 62.786V64.2836L2.59879 63.2514L4.19757 63.0086L2.94283 63.6967L1.80951 65.174V66.3478L2.53807 66.6919L4.319 68.5537L8.06299 69.849L9.13559 69.4847H10.532L12.8998 68.4728L13.0212 67.9668L12.8391 67.6026L13.1832 67.8049H14.3569L13.8915 68.8978H13.5474L12.4546 70.5978H11.7463L9.37845 72.4596L9.25702 72.8846L8.62965 72.5001H8.24513L7.61776 73.0465L6.66658 72.9251V71.6501L5.9785 71.8727L5.77612 71.5287H5.0678L4.86542 72.1561L5.0678 72.9251L7.59752 75.4751L8.36656 75.8798H8.89274V76.2846L10.6939 78.6726L15.1057 82.2952L17.1295 82.7404L18.5259 82.275L21.4806 80.4333L23.5044 79.4417V78.8143L24.3949 77.9036L24.5973 75.8798L23.7473 74.8274L24.577 72.6215V71.468L24.7187 70.7597L25.1639 71.6906L26.5401 71.5085L27.2282 71.8525L28.2603 71.2251L27.7948 71.9537L26.8437 72.9049L26.0949 72.7227L25.7913 72.9656L25.5889 74.0989L26.1353 75.0501L26.0139 76.1227H26.7222L28.0579 75.9405L29.0496 76.1429H28.1186L27.6937 76.8108L26.4591 77.5596L26.9651 80.2714L27.6127 80.6964L28.1389 82.3559L28.2603 83.9952L27.6532 85.3106V86.3023L28.5639 86.8285L27.5115 87.3546L27.7746 89.3784L29.515 92.495V93.5474L30.1222 94.3772L29.5555 94.4379V95.6521L31.2555 97.8378H30.0008L31.0734 99.4771V101.035L33.5221 105.771V108.989L34.4328 111.458L35.384 112.065L35.809 113.765L36.5578 114.19V114.939L37.8935 117.367H38.2983V118.015L39.7554 119.715H40.1197L40.2411 121.739L40.8482 122.649L41.4553 123.904L41.7589 125.685L42.7708 128.296L43.4184 129.287L43.5803 131.675L44.1065 132.161L44.7946 133.618L46.3529 135.278H46.7981L47.7898 136.877L49.4897 138.9L49.9957 140.924L50.5624 142.543H51.0481V143.616L52.3433 146.004L52.9504 148.189L53.0921 150.578L55.1159 154.827L56.7956 156.851L58.536 158.065L60.3979 158.248L62.6646 156.851L63.1705 155.333L62.9276 154.908L63.1705 154.645V154.038L63.9598 153.127L65.9836 152.277H66.3681L68.8168 151.427L69.7073 151.751L69.9704 152.277V151.852L69.7478 151.529L67.8859 150.578L67.7038 149.849L68.2299 149.201L69.7073 147.178L69.424 146.692L70.0716 145.559L71.5894 145.316L72.1763 145.599L73.2691 145.194V143.879L72.8239 139.103L72.2573 138.232V136.027L73.7346 133.375L75.0298 129.611L74.8275 126.778L73.3906 126.312V121.88L73.2084 120.322L74.1191 119.27L73.1275 116.699V114.676L73.6942 113.644L75.5965 111.721H76.1024L76.7096 112.591H77.5798L79.1381 110.567V109.353L80.2714 108.402L82.8214 108.786L84.1773 107.916L85.1285 106.54L84.9059 105.184L85.088 103.97L86.6868 102.634L88.8523 101.885L90.026 100.712L90.8153 99.2342L95.9355 95.1867L96.9271 92.4343L100.833 88.9737L100.327 88.7106L100.003 89.1153L99.0926 89.4796L99.3354 87.9618H99.9426L100.914 87.1725H101.359L101.602 87.4558V88.0427L101.946 88.4677L105.063 86.8689V86.1404L107.087 84.6428L106.844 83.9344H107.451L107.754 82.8821L109.05 81.769L108.685 81.5869V81.2226L108.078 80.0083L107.876 79.3202L108.442 78.1869L108.685 77.3369L109.292 76.831L112.854 75.5155L113.704 74.5644V73.7346L114.048 72.9453L114.413 72.6215L113.947 72.0751L113.279 71.893V71.5692H114.554L115.424 72.3584L115.182 73.2287L115.485 74.6453L116.436 74.9691V74.787H117.347L117.549 74.4025L117.691 74.6858L117.853 74.0179L117.974 73.5322L118.217 74.1798L118.622 75.4953L119.249 75.8393V75.212L120.14 76.1631L120.747 75.131L120.099 73.8156H120.363L120.201 72.0144L119.796 71.0632V69.5049L118.157 67.1776L117.873 65.3966L118.076 64.3645L117.529 62.9074V61.005L116.133 59.2444L114.635 58.6575L113.36 57.1194V54.8528L114.433 54.6099L114.939 53.0718L115.769 52.5861L116.457 52.829L117.205 52.2421L116.882 50.7647L117.124 50.0564L115.647 49.935L114.595 50.3397L111.923 49.3885L112.085 48.0326L113.158 46.7981L113.704 45.3005L113.117 44.8148V44.0255H113.603L113.947 43.1958L114.392 43.8636L115.182 44.7743V45.3815L116.011 46.4136L117.205 46.5755L117.792 46.2922L116.963 45.8065L117.205 45.1386H117.711L118.521 45.8469L119.108 46.4136L120.221 46.7981V46.3731L120.808 46.2517L121.597 47.6683L121.82 48.9231L121.982 49.6314L122.447 50.8659V51.6957L123.52 52.1004H124.592L125.786 52.6468H127.284L129.591 52.4849L131.331 52.6873H133.355H134.306L134.711 52.9706L135.379 52.8087L136.371 53.8409L136.957 54.0837L136.33 55.2777L136.128 56.6944L135.379 58.5967L134.671 58.961V59.7098L134.225 60.2765L133.578 60.1753L133.173 59.7503L132.06 60.5193L131.878 61.2681L131.433 61.6729V62.3407L131.999 63.8788L132.586 64.4252L132.809 65.0121L133.719 65.8823L134.61 67.0561H135.197V66.1454L134.833 65.8621L135.419 64.9919V64.3645L135.763 63.8383L135.399 63.3122L135.925 62.8872L136.654 63.3931H137.646L137.929 63.9193L138.435 64.7288L138.819 66.3478V67.5418L139.224 68.4121L139.649 70.1525L140.115 71.6906L140.519 72.5608L140.762 72.9656V73.5727L141.025 74.0382L141.248 74.2608V73.6334L141.491 72.5608L142.037 72.8037L142.665 72.4799L143.312 70.5775L143.029 69.4037L143.231 68.0073L143.029 66.4692L144.223 66.6311L144.344 64.6074V63.13L143.656 60.317H144.85L145.842 60.6408H147.36L148.27 58.4956L148.817 56.067L149.141 55.2575L150.051 53.0314L148.695 52.3837V51.5135L150.294 48.9028L151.083 46.6362L150.517 45.8874L150.8 44.5315L152.702 41.5565L153.977 41.0911L155.354 39.3911L155.92 38.0351L157.782 37.4482L159.401 36.2947L160.352 37.084L161.465 37.5697L161.182 36.6185L161.202 35.1209Z" fill="white" stroke="#002588" stroke-width="0.202378" stroke-miterlimit="10"/>
<path d="M49.3241 64.4036V74H48.1621V64.4036H49.3241ZM59.2638 64.4036V74H58.1392L52.9099 66.4653H52.8162V74H51.6541V64.4036H52.7787L58.0267 71.957H58.1204V64.4036H59.2638ZM64.5504 74H61.589V64.4036H64.6816C65.6125 64.4036 66.4091 64.5957 67.0714 64.98C67.7336 65.3611 68.2412 65.9093 68.5942 66.6246C68.9472 67.3369 69.1237 68.1897 69.1237 69.1831C69.1237 70.1827 68.9457 71.0433 68.5895 71.7649C68.2334 72.4834 67.7149 73.0363 67.0339 73.4237C66.3529 73.8079 65.5251 74 64.5504 74ZM62.7511 72.9691H64.4755C65.2689 72.9691 65.9265 72.8161 66.4482 72.5099C66.9698 72.2038 67.3588 71.768 67.6149 71.2026C67.8711 70.6372 67.9991 69.964 67.9991 69.1831C67.9991 68.4084 67.8726 67.7414 67.6196 67.1822C67.3666 66.62 66.9886 66.1889 66.4856 65.889C65.9827 65.586 65.3564 65.4345 64.6067 65.4345H62.7511V72.9691ZM72.235 64.4036V74H71.073V64.4036H72.235ZM74.9586 74H73.7403L77.264 64.4036H78.4636L81.9872 74H80.7689L77.9013 65.9218H77.8263L74.9586 74ZM75.4085 70.2514H80.3191V71.2823H75.4085V70.2514Z" fill="#FD9100"/>
</svg>
