<svg width="60" height="33" viewBox="0 0 60 33" fill="none" xmlns="http://www.w3.org/2000/svg">
<path fill-rule="evenodd" clip-rule="evenodd" d="M59 27.8135L58.4832 31.078L54.1523 32L51.5439 30.5547L50.0182 31.377L43.9894 29.1342L41.5779 29.2339L40.2737 29.9566L36.5333 28.9349L34.737 27.3151L34.3186 25.4711L30.9966 24.6487L27.3793 25.6704L26.1735 24.549L22.6546 24.8481L20.3415 23.328H18.4221L17.0933 22.381L14.3865 21.758L12.2703 19.1166L9.04666 16.9735L6.58591 16.2757L5.38014 15.4036L4.12515 15.3537L2.91939 14.332L1.39372 14.1825L1 12.4132L2.59949 9.97107V7.62863L3.70683 3.84085L3.53458 1.39872L3.82986 1L5.87229 2.07154L6.38905 2.84406L7.79168 2.76931L8.55452 3.14309L9.39118 1.8722L11.1137 1.72267L13.6729 2.66963L14.3865 3.3923L16.0352 3.49196L17.0933 4.26448L19.1604 6.4574L20.7599 6.50725L22.2609 7.25483L22.8269 8.17686L24.0819 9.64711L24.6725 11.1921L25.3861 10.8682L25.5337 8.77493L26.3458 8.02735L26.8379 8.62541H28.2898L29.7662 9.54743L29.9631 11.4912L31.661 13.0113L33.8757 12.4132L35.6474 12.6624L35.2291 15.5531L36.0412 17.1977L37.1977 16.9236L39.1663 17.8955L40.003 17.1479L41.5286 16.6744L42.7836 15.254L45.392 15.5531L47.0899 16.4252L47.5083 18.0949L49.5753 18.9172L50.9779 20.8609L52.1837 21.16L53.9308 20.3875L54.6445 20.7114L56.5392 20.0884L57.8188 20.1881L58.2864 21.6833L57.6712 25.0474L59 27.8135Z" fill="white" stroke="#002588" stroke-width="0.202378" stroke-miterlimit="10"/>
<path d="M26.0765 15.43L24.926 19.1684L24.4889 19.0304L23.3596 15.4537L23.3232 15.4422L22.4198 18.3774L21.9682 18.2348L23.1187 14.4965L23.5558 14.6344L24.6901 18.2207L24.7265 18.2322L25.6321 15.2897L26.0765 15.43ZM25.8298 19.4536L26.9803 15.7152L29.2314 16.4257L29.1078 16.8273L27.3084 16.2594L26.9196 17.5225L28.6025 18.0537L28.4789 18.4553L26.7961 17.9241L26.4051 19.1946L28.2337 19.7717L28.1101 20.1733L25.8298 19.4536ZM28.8951 20.421L30.0456 16.6827L31.3059 17.0804C31.5985 17.1728 31.8214 17.3012 31.9746 17.4657C32.1294 17.6294 32.2242 17.8149 32.259 18.0221C32.2938 18.2294 32.2773 18.4431 32.2095 18.6634C32.1417 18.8836 32.0352 19.0696 31.8899 19.2214C31.7458 19.3735 31.5644 19.4738 31.3457 19.5223C31.1274 19.5695 30.8731 19.5473 30.5829 19.4557L29.6795 19.1706L29.8031 18.769L30.6919 19.0496C30.8922 19.1128 31.0638 19.1289 31.2066 19.0978C31.3493 19.0668 31.4662 19.0009 31.5572 18.9001C31.6497 18.7984 31.719 18.6728 31.7651 18.5231C31.8112 18.3734 31.8244 18.2308 31.8049 18.0951C31.7866 17.9598 31.7264 17.8393 31.6244 17.7337C31.5227 17.6269 31.3705 17.5414 31.1677 17.4774L30.3736 17.2268L29.3467 20.5636L28.8951 20.421ZM31.923 21.3767L31.4494 21.2272L33.9696 17.9211L34.4358 18.0683L34.6549 22.2389L34.1814 22.0895L34.0352 18.5907L34.0061 18.5815L31.923 21.3767ZM32.5472 19.9716L34.456 20.574L34.3324 20.9756L32.4236 20.3732L32.5472 19.9716ZM35.2359 22.4223L36.3864 18.6839L36.8381 18.8265L35.8112 22.1633L37.5451 22.7105L37.4215 23.1121L35.2359 22.4223Z" fill="#FD9100"/>
</svg>
