<svg width="82" height="89" viewBox="0 0 82 89" fill="none" xmlns="http://www.w3.org/2000/svg">
<path fill-rule="evenodd" clip-rule="evenodd" d="M81.0607 31.0733L79.9274 32.3483L79.2191 32.2269L79.1988 32.2471L78.1465 32.9352L77.0739 33.2995L75.2525 35.04L75.5763 35.5257L76.1632 37.6506L75.8798 40.5042L75.6977 41.8601L74.787 42.5684L73.1477 44.3898L73.8763 44.9565L73.937 46.0291L73.3096 47.4457L71.4478 48.3564L70.1728 50.1778L69.9097 52.0397L69.2621 53.2742L66.6109 55.1361L65.4978 58.5158L63.6764 60.5396L60.661 60.7217L58.5158 61.8348L57.6861 61.6729L57.423 60.5396L56.1885 60.0134L55.4397 60.5396L54.3671 61.086L54.1242 62.0776L52.5861 64.2633L51.7361 64.5669L50.8254 66.874V68.3109L51.7766 68.2704L53.1326 68.7359L53.7599 68.4121L54.8325 68.4525L55.6623 70.2132L55.5611 71.6299L55.8242 73.7346L57.6861 74.9286L58.7991 74.8477L59.5884 75.5155L59.2848 76.3048L60.4182 77.7822L61.6931 81.425L61.5312 82.2547L61.9765 82.7809L60.9039 83.1654L59.6289 83.9547L59.0825 83.2868L59.5479 82.4571L58.2122 82.8821L57.767 83.3678L55.4801 84.1975L51.554 83.9952L50.6028 84.4809L49.7326 84.2785L49.2469 85.7154L48.4576 85.938L47.2636 86.707L47.2029 88.2046L46.2922 88.7915L46.4136 88.0832L44.3696 87.0915L42.7303 87.132L41.678 87.2332L41.2934 85.9987H40.8077L40.4637 85.8773L40.9089 85.5737L40.9494 84.8047L40.7268 84.5821L40.4232 82.538L39.1482 81.1012L39.1685 79.9274L37.4685 80.6762L36.5173 80.6559L36.4971 80.2512L36.8007 80.15L36.6185 79.9476L36.8007 78.9964L36.2947 77.7215L35.0804 76.7703L33.4007 76.8108L32.0043 77.3369L30.365 77.1143L29.9198 76.7703L29.7579 77.1953H28.8472L27.977 77.7619L27.0663 77.4988H25.5484L24.233 78.7536H23.3223L22.5532 78.2072H21.6425L21.2985 77.5393L20.6914 77.4179L20.5497 77.9036H19.7604L18.6474 77.1548L18.1616 77.7619L18.0402 78.3691H17.3926L16.6843 78.2881L15.7331 78.5512L15.1665 78.3691L13.9117 78.2881L13.082 78.9762L12.6165 79.1583L12.5153 78.6321L11.2201 78.7131L9.58082 79.725L9.05464 79.5024L9.09512 78.6726H8.42727L8.40703 77.7417L8.64989 75.7179L8.10346 74.3215L8.97369 73.1072L8.69036 72.1156L9.27726 71.0025L10.9975 70.2942L11.5844 69.687L14.3569 68.8573L15.8343 69.4442L16.6641 68.6549L16.5021 66.4085L15.0046 65.4169L13.6081 65.5181L13.3248 64.4657L13.2439 62.9074L12.8189 61.5717L12.7784 59.6289L11.2201 59.467L11.0379 58.8598L9.96534 58.4348L8.06299 58.2729L7.57728 57.686L6.12016 56.917L4.6428 55.3385L3.97496 54.023L1 50.0362L1.02024 50.0159L8.8725 52.2421L15.4903 52.0802L17.4128 51.5742L19.2343 51.6552L19.9426 51.0885L21.9664 50.5421L25.0223 50.3802L26.8437 50.1373L28.827 50.1778L31.0936 49.2266L31.3365 48.154L30.8912 47.0207L30.9722 45.8267L30.5674 43.9648L30.4865 42.4065L31.215 41.4553L32.2876 41.0708L32.5507 40.1601L32.9555 39.2899L34.3721 39.0066L35.0197 39.472L37.1245 38.5208L37.7923 37.6911L36.8411 37.3875L38.9863 35.7483L39.3709 34.9995L40.7268 34.8781L41.3946 35.3233L42.791 35.4042L42.872 34.6352H43.5398L44.6327 36.0114L45.8874 34.19L45.4422 31.64L45.8469 31.1543L45.9077 30.365L46.3124 29.0496L46.4743 27.0258L46.9398 26.196L48.2148 26.0746L49.5707 25.3258L49.8338 24.3342L49.1255 22.7556L47.9314 22.108L47.2838 20.6104L48.7005 19.6997L50.7647 20.5295H52.9099L54.4075 18.3033V16.7248L53.0111 15.4093L55.723 11.8474L55.5611 9.3582L53.0921 5.71539L54.1647 4.64279L55.0754 3.22615H56.6539L58.0503 1.99165L59.9527 1L61.2884 1.72855L62.9276 1.40475L63.3122 2.37617L60.5396 4.23804L60.7824 6.50467L61.6122 7.29394L62.4419 6.97014L63.5955 6.54515L64.749 8.00227L66.3276 9.31772L67.8454 10.2284L68.1895 11.382L69.8287 11.8474L69.8692 13.2439L68.2704 14.276L68.1085 15.4902L67.1371 15.895L67.1776 17.6759L68.2299 19.3759L69.1406 23.2616L69.424 24.9615L71.4882 26.8234L73.6334 27.3496L75.637 28.1794L76.3453 29.6567L78.0857 30.021L79.4822 29.4746L80.919 29.8389L81.0607 31.0733Z" fill="white" stroke="#002588" stroke-width="0.202378" stroke-miterlimit="10"/>
<path d="M35.9109 66.5155L31.3941 61.9986L32.9203 60.4724C33.2746 60.1181 33.6282 59.8924 33.9811 59.7954C34.334 59.6954 34.6729 59.699 34.9978 59.8064C35.3228 59.9137 35.6183 60.1004 35.8845 60.3666C36.1506 60.6327 36.3381 60.929 36.4469 61.2554C36.5571 61.5803 36.5645 61.92 36.4689 62.2743C36.3719 62.6272 36.1476 62.9793 35.7962 63.3308L34.7023 64.4247L34.2171 63.9395L35.2934 62.8632C35.536 62.6206 35.6889 62.3839 35.7521 62.153C35.8154 61.9222 35.8087 61.7024 35.7323 61.4936C35.6558 61.2819 35.5272 61.0856 35.3463 60.9047C35.1655 60.7239 34.9699 60.5959 34.7597 60.521C34.5509 60.4445 34.3318 60.4401 34.1024 60.5077C33.8716 60.5739 33.6334 60.7297 33.3878 60.9753L32.4262 61.9369L36.4579 65.9685L35.9109 66.5155ZM39.5776 62.8489L39.0041 63.4223L36.1458 57.2469L36.7104 56.6823L42.8858 59.5406L42.3124 60.114L37.1603 57.6615L37.125 57.6968L39.5776 62.8489ZM38.0249 60.8727L40.3362 58.5614L40.8214 59.0466L38.5101 61.3579L38.0249 60.8727ZM43.5893 58.8371L39.0725 54.3202L39.6195 53.7733L41.8602 56.014L41.9132 55.9611L41.7014 51.6913L42.416 50.9767L42.5572 54.9113L46.9329 55.4935L46.2712 56.1552L42.6013 55.6259L42.6719 56.8257L44.1363 58.2901L43.5893 58.8371ZM43.6709 49.7218L48.1878 54.2386L47.6408 54.7856L43.124 50.2687L43.6709 49.7218ZM48.367 47.2842C48.117 47.0871 47.8362 47.021 47.5245 47.0857C47.2128 47.1504 46.9202 47.3194 46.6467 47.5929C46.4467 47.7929 46.3041 48.0002 46.2188 48.2149C46.135 48.4281 46.1078 48.6332 46.1372 48.8302C46.1681 49.0258 46.2556 49.1956 46.3997 49.3397C46.5203 49.4602 46.6526 49.5352 46.7967 49.5646C46.9408 49.5911 47.0871 49.5874 47.2356 49.5536C47.3826 49.5183 47.5245 49.4691 47.6612 49.4058C47.7965 49.3411 47.9171 49.2779 48.0229 49.2162L48.6052 48.8809C48.7537 48.7942 48.9272 48.706 49.1257 48.6163C49.3256 48.5251 49.5388 48.4604 49.7653 48.4222C49.9917 48.381 50.2211 48.3898 50.4534 48.4487C50.6857 48.5075 50.9077 48.6427 51.1194 48.8545C51.3635 49.0985 51.5201 49.383 51.5892 49.708C51.6598 50.0315 51.6311 50.3733 51.5032 50.7335C51.3767 51.0923 51.14 51.4452 50.793 51.7922C50.4696 52.1157 50.1373 52.3436 49.7961 52.4759C49.4565 52.6067 49.1257 52.6464 48.8037 52.595C48.4831 52.542 48.1905 52.4009 47.9259 52.1715L48.4905 51.6069C48.6758 51.7628 48.8742 51.8466 49.086 51.8583C49.2977 51.8672 49.508 51.8216 49.7167 51.7216C49.9255 51.6187 50.1196 51.4775 50.299 51.2981C50.5078 51.0894 50.6614 50.8681 50.7599 50.6343C50.857 50.399 50.893 50.1719 50.868 49.9528C50.8415 49.7323 50.746 49.5396 50.5813 49.375C50.4313 49.225 50.2674 49.1449 50.0895 49.1346C49.9116 49.1243 49.7248 49.1581 49.5293 49.236C49.3337 49.3139 49.1345 49.4102 48.9316 49.5249L48.217 49.9219C47.7627 50.1733 47.3385 50.3079 46.9444 50.3255C46.5504 50.3432 46.2012 50.1998 45.8968 49.8955C45.6439 49.6426 45.4918 49.3536 45.4403 49.0287C45.3888 48.7008 45.4271 48.3685 45.555 48.0318C45.6829 47.6922 45.891 47.3783 46.1791 47.0901C46.4703 46.7989 46.7812 46.5924 47.1121 46.4703C47.4414 46.3468 47.7619 46.3086 48.0737 46.3556C48.3868 46.4012 48.661 46.5343 48.8963 46.7548L48.367 47.2842ZM48.9663 45.3968L48.4811 44.9116L51.8688 41.524L52.354 42.0092L50.9336 43.4295L54.9653 47.4611L54.4183 48.0081L50.3867 43.9765L48.9663 45.3968ZM56.8873 45.5391L56.3139 46.1125L53.4556 39.9371L54.0202 39.3725L60.1956 42.2308L59.6222 42.8043L54.4701 40.3517L54.4348 40.387L56.8873 45.5391ZM55.3347 43.5629L57.646 41.2516L58.1312 41.7368L55.8199 44.0481L55.3347 43.5629ZM59.964 33.4287L64.4809 37.9456L63.9515 38.4749L57.9438 37.3898L57.8997 37.4339L61.4461 40.9803L60.8991 41.5273L56.3823 37.0104L56.9116 36.4811L62.937 37.5662L62.9811 37.5221L59.4259 33.9669L59.964 33.4287Z" fill="#FD9100"/>
</svg>
