<svg width="215" height="81" viewBox="0 0 215 81" fill="none" xmlns="http://www.w3.org/2000/svg">
<g clip-path="url(#clip0_240_17889)">
<path d="M84.2964 34.8705V33.4943L85.7058 33.226V23.5141L84.2964 23.2458V21.8652H89.3447V23.2502L87.9374 23.5184V27.5751H93.5773V23.5184L92.1701 23.2502V21.8652H97.2075V23.2502L95.8003 23.5184V33.2304L97.2075 33.4987V34.8749H92.1723V33.4987L93.5795 33.2304V29.3264H87.9396V33.2304L89.3469 33.4987V34.8749L84.2964 34.8705Z" fill="white"/>
<path d="M100.57 34.8705V33.4943L101.98 33.226V23.5141L100.57 23.2458V21.8652H105.61V23.2502L104.211 23.5184V33.2304L105.61 33.4987V34.8749L100.57 34.8705Z" fill="white"/>
<path d="M109.036 34.8705V33.4943L110.434 33.226V23.5141L109.036 23.2458V21.8652H113.629L117.403 31.2697H117.455L121.131 21.8652H125.779V23.2502L124.372 23.5184V33.2304L125.779 33.4987V34.8749H120.742V33.4987L122.219 33.2304V30.1966L122.238 24.5064L122.193 24.4955L118.199 34.5761H116.579L112.47 24.5435H112.427L112.542 30.0309V33.2108L114.064 33.479V34.8552L109.036 34.8705Z" fill="white"/>
<path d="M128.559 34.8705V33.4943L129.496 33.3613L133.764 21.8652H135.939L140.154 33.3656L141.092 33.4987V34.8749H136.978V33.4987L137.901 33.3285L137.218 31.2828H132.42L131.719 33.3285L132.648 33.4987V34.8749L128.559 34.8705ZM133.011 29.5532H136.652L134.977 24.7376L134.862 24.3886H134.803L134.679 24.7551L133.011 29.5532Z" fill="white"/>
<path d="M144.334 34.8705V33.4943L145.744 33.226V23.5141L144.334 23.2458V21.8652H149.489V23.2502L147.967 23.5184V33.1497H151.995L152.145 31.1868H153.855V34.877L144.334 34.8705Z" fill="white"/>
<path d="M157.146 34.8705V33.4943L158.085 33.3613L162.353 21.8652H164.528L168.734 33.3613L169.672 33.4943V34.8705H165.572V33.4943L166.494 33.3242L165.811 31.2784H161.013L160.313 33.3242L161.241 33.4943V34.8705H157.146ZM161.6 29.5532H165.239L163.567 24.7376L163.451 24.3886H163.399L163.275 24.7551L161.6 29.5532Z" fill="white"/>
<path d="M174.146 34.8705V33.4943L175.544 33.226V30.2948L171.666 23.4247L170.498 23.2458V21.8652H175.351V23.2502L174.12 23.4116L176.512 27.9677L176.708 28.3602L176.743 28.3428L176.93 27.9764L179.514 23.4116L178.054 23.2502V21.8652H182.809V23.2502L181.595 23.429L177.77 30.1203V33.2304L179.179 33.4987V34.8749L174.146 34.8705Z" fill="white"/>
<path d="M183.646 34.8705V33.4943L184.584 33.3613L188.854 21.8652H191.029L195.244 33.3656L196.181 33.4987V34.8749H192.081V33.4987L193.004 33.3285L192.321 31.2828H187.522L186.822 33.3285L187.753 33.4987V34.8749L183.646 34.8705ZM188.092 29.5532H191.733L190.059 24.7376L189.943 24.3886H189.891L189.767 24.7551L188.092 29.5532Z" fill="white"/>
<path d="M199.433 34.8705V33.4943L200.84 33.226V23.5141L199.433 23.2458V21.8652H203.1L209.016 31.3635L209.069 31.346V23.5141L207.439 23.2458V21.8652H212.486V23.2502L211.078 23.5184V34.8749H208.962L202.907 25.4115H202.852V33.2217L204.481 33.4899V34.8661L199.433 34.8705Z" fill="white"/>
<path d="M84.1833 56.828V55.4518L85.1208 55.3188L89.3882 43.8184H91.5633L95.7786 55.3188L96.716 55.4518V56.828H92.6073V55.4518L93.5296 55.2817L92.8466 53.2359H88.0484L87.348 55.2817L88.279 55.4518V56.828H84.1833ZM88.6357 51.5129H92.2767L90.6019 46.6951L90.4867 46.3483H90.4323L90.3083 46.7147L88.6357 51.5129Z" fill="#F39019"/>
<path d="M99.959 56.8283V55.4521L101.377 55.1751V45.4893L99.959 45.2014V43.8165H105.362C106.41 43.788 107.444 44.0639 108.339 44.6111C109.234 45.1582 109.953 45.9532 110.408 46.9004C110.908 47.9254 111.157 49.0551 111.134 50.1959V50.4554C111.154 51.5863 110.911 52.7062 110.425 53.7269C109.984 54.6542 109.293 55.4397 108.431 55.9951C107.53 56.5584 106.484 56.8456 105.423 56.8217L99.959 56.8283ZM103.609 55.0944H105.307C106.003 55.1142 106.685 54.8992 107.243 54.4837C107.795 54.0518 108.219 53.4772 108.47 52.8218C108.766 52.0694 108.914 51.2665 108.905 50.4576V50.1893C108.918 49.3688 108.77 48.5538 108.47 47.7902C108.22 47.1413 107.795 46.5744 107.243 46.1523C106.681 45.744 106.001 45.5332 105.307 45.5525H103.609V55.0944Z" fill="#F39019"/>
<path d="M119.332 56.8282L115.108 45.3475L114.021 45.2035V43.8186H118.704V45.2013L117.536 45.3889L120.217 53.3146L120.457 54.1631H120.511L120.759 53.3234L123.476 45.3802L122.14 45.2013V43.8164H126.682V45.2013L125.566 45.3453L121.503 56.826L119.332 56.8282Z" fill="#F39019"/>
<path d="M129.868 56.828V55.4518L131.276 55.1835V45.4716L129.868 45.2033V43.8184H139.689V47.164H137.949L137.799 45.5479H133.499V49.2294H138.025V50.9742H133.499V55.1181H138.034L138.184 53.4671H139.902V56.8346L129.868 56.828Z" fill="#F39019"/>
<path d="M143.645 56.828V55.4518L145.052 55.1835V45.4716L143.645 45.2033V43.8184H147.31L153.226 53.3166L153.278 53.2992V45.4716L151.649 45.2033V43.8184H156.698V45.2011L155.288 45.4694V56.8258H153.172L147.116 47.3647H147.062V55.1726L148.691 55.4409V56.8171L143.645 56.828Z" fill="#F39019"/>
<path d="M163.053 56.828V55.4518L164.46 55.1835V45.5435H161.865L161.672 47.2055H159.997V43.8184H171.164V47.2055H169.482L169.287 45.5435H166.692V55.1835L168.099 55.4518V56.828H163.053Z" fill="#F39019"/>
<path d="M180.752 57.0156C179.87 57.033 178.996 56.8511 178.194 56.4834C177.478 56.1555 176.873 55.6248 176.454 54.9567C176.02 54.2252 175.803 53.3845 175.829 52.5336V45.4716L174.42 45.2033V43.8184H179.46V45.2011L178.052 45.4694V52.5293C178.034 53.0548 178.15 53.5763 178.387 54.0451C178.601 54.4419 178.932 54.7622 179.336 54.9611C179.78 55.1717 180.268 55.2755 180.76 55.2642C181.263 55.2771 181.762 55.1734 182.217 54.9611C182.623 54.7639 182.957 54.4454 183.175 54.0494C183.417 53.5783 183.534 53.0524 183.514 52.5227V45.4716L182.107 45.2033V43.8184H187.146V45.2011L185.745 45.4694V52.5293C185.773 53.3858 185.557 54.2324 185.121 54.9698C184.705 55.6408 184.1 56.1723 183.381 56.4965C182.553 56.8609 181.655 57.0382 180.752 57.0156Z" fill="#F39019"/>
<path d="M190.385 56.8282V55.452L191.792 55.1838V45.4718L190.385 45.2035V43.8186H196.344C197.192 43.7959 198.036 43.9496 198.822 44.2701C199.462 44.5334 200.008 44.9832 200.39 45.5612C200.742 46.1726 200.927 46.8661 200.927 47.5721C200.927 48.2781 200.742 48.9716 200.39 49.583C200.024 50.1518 199.505 50.6054 198.894 50.8916C198.188 51.2189 197.418 51.385 196.64 51.3779L194.03 51.4041V55.1751L195.437 55.4433V56.8195L190.385 56.8282ZM194.024 49.6615H196.247C197.083 49.6615 197.703 49.4906 198.106 49.149C198.312 48.9609 198.473 48.7288 198.578 48.4698C198.682 48.2108 198.727 47.9315 198.709 47.6528C198.722 47.3715 198.677 47.0905 198.577 46.8276C198.476 46.5648 198.322 46.3258 198.124 46.1261C197.735 45.7481 197.142 45.559 196.344 45.559H194.024V49.6615ZM198.77 56.8282L196.307 50.8414L198.398 50.4925L200.488 55.2209L201.497 55.439V56.8326L198.77 56.8282Z" fill="#F39019"/>
<path d="M204.958 56.828V55.4518L206.365 55.1835V45.4716L204.958 45.2033V43.8184H214.778V47.164H213.038L212.888 45.5479H208.592V49.2294H213.119V50.9742H208.592V55.1181H213.127L213.277 53.4671H214.996V56.8346L204.958 56.828Z" fill="#F39019"/>
<path d="M51.7771 67.5847L77.6407 0L-0.00878906 81.0022L47.29 44.9438C47.7456 44.5978 48.2891 44.3874 48.8584 44.3365C49.4276 44.2857 49.9997 44.3965 50.5091 44.6564C51.0185 44.9162 51.4447 45.3145 51.7389 45.8058C52.0332 46.2971 52.1836 46.8615 52.173 47.4345L51.7771 67.5847ZM44.669 40.9918L65.2364 19.533L58.3871 37.4368L58.4937 32.0999C58.4971 31.9466 58.457 31.7956 58.378 31.6643C58.2991 31.533 58.1846 31.4269 58.0478 31.3583C57.9111 31.2898 57.7577 31.2616 57.6056 31.277C57.4535 31.2925 57.3089 31.3509 57.1887 31.4456L44.669 40.9918Z" fill="#F39019"/>
<path d="M33.0609 1.93359L9.1853 64.3537L38.9488 33.292L28.2257 38.607C27.9208 38.758 27.5797 38.8198 27.2414 38.7853C26.9031 38.7508 26.5813 38.6214 26.3129 38.412C26.0446 38.2025 25.8405 37.9215 25.7241 37.6011C25.6077 37.2808 25.5837 36.934 25.6548 36.6005L33.0609 1.93359Z" fill="white"/>
</g>
<defs>
<clipPath id="clip0_240_17889">
<rect width="215" height="81" fill="white"/>
</clipPath>
</defs>
</svg>
