<svg width="410" height="155" viewBox="0 0 410 155" fill="none" xmlns="http://www.w3.org/2000/svg">
<g clip-path="url(#clip0_265_12726)">
<path d="M160.751 66.7265V64.093L163.439 63.5797V44.995L160.751 44.4817V41.8398H170.378V44.49L167.695 45.0034V52.7661H178.45V45.0034L175.766 44.49V41.8398H185.373V44.49L182.689 45.0034V63.588L185.373 64.1014V66.7348H175.771V64.1014L178.454 63.588V56.1174H167.699V63.588L170.383 64.1014V66.7348L160.751 66.7265Z" fill="#232323"/>
<path d="M191.785 66.7265V64.093L194.473 63.5797V44.995L191.785 44.4817V41.8398H201.396V44.49L198.729 45.0034V63.588L201.396 64.1014V66.7348L191.785 66.7265Z" fill="#232323"/>
<path d="M207.928 66.7265V64.093L210.595 63.5797V44.995L207.928 44.4817V41.8398H216.688L223.885 59.836H223.984L230.994 41.8398H239.858V44.49L237.174 45.0034V63.588L239.858 64.1014V66.7348H230.252V64.1014L233.068 63.588V57.7827L233.105 46.894L233.018 46.8731L225.403 66.1631H222.313L214.478 46.9649H214.395L214.614 57.4655V63.5505L217.518 64.0638V66.6973L207.928 66.7265Z" fill="#232323"/>
<path d="M245.159 66.7265V64.093L246.946 63.8384L255.084 41.8398H259.232L267.27 63.8468L269.058 64.1014V66.7348H261.215V64.1014L262.973 63.7758L261.671 59.8611H252.521L251.185 63.7758L252.956 64.1014V66.7348L245.159 66.7265ZM253.649 56.5515H260.593L257.399 47.3363L257.179 46.6686H257.067L256.831 47.3697L253.649 56.5515Z" fill="#232323"/>
<path d="M275.243 66.7265V64.093L277.93 63.5797V44.995L275.243 44.4817V41.8398H285.073V44.49L282.17 45.0034V63.4336H289.851L290.137 59.6774H293.398V66.739L275.243 66.7265Z" fill="#232323"/>
<path d="M299.673 66.7265V64.093L301.465 63.8384L309.603 41.8398H313.751L321.773 63.8384L323.56 64.093V66.7265H315.742V64.093L317.5 63.7675L316.198 59.8527H307.048L305.713 63.7675L307.484 64.093V66.7265H299.673ZM308.168 56.5515H315.107L311.918 47.3363L311.698 46.6686H311.598L311.362 47.3697L308.168 56.5515Z" fill="#232323"/>
<path d="M332.092 66.7265V64.093L334.759 63.5797V57.9705L327.364 44.8239L325.136 44.4817V41.8398H334.39V44.49L332.042 44.7989L336.605 53.5173L336.978 54.2686L337.044 54.2352L337.401 53.534L342.329 44.7989L339.546 44.49V41.8398H348.613V44.49L346.298 44.8322L339.002 57.6366V63.588L341.69 64.1014V66.7348L332.092 66.7265Z" fill="#232323"/>
<path d="M350.21 66.7265V64.093L351.998 63.8384L360.14 41.8398H364.288L372.326 63.8468L374.114 64.1014V66.7348H366.295V64.1014L368.054 63.7758L366.751 59.8611H357.601L356.266 63.7758L358.041 64.1014V66.7348L350.21 66.7265ZM358.688 56.5515H365.631L362.438 47.3363L362.218 46.6686H362.118L361.882 47.3697L358.688 56.5515Z" fill="#232323"/>
<path d="M380.314 66.7265V64.093L382.998 63.5797V44.995L380.314 44.4817V41.8398H387.308L398.59 60.0155L398.689 59.9821V44.995L395.582 44.4817V41.8398H405.205V44.49L402.522 45.0034V66.7348H398.486L386.938 48.626H386.835V63.5713L389.941 64.0846V66.7181L380.314 66.7265Z" fill="#232323"/>
<path d="M160.536 108.745V106.111L162.323 105.857L170.461 83.8496H174.609L182.647 105.857L184.435 106.111V108.745H176.6V106.111L178.359 105.786L177.056 101.871H167.906L166.571 105.786L168.346 106.111V108.745H160.536ZM169.026 98.5738H175.97L172.776 89.3545L172.556 88.6909H172.452L172.216 89.392L169.026 98.5738Z" fill="#F39019"/>
<path d="M190.62 108.745V106.111L193.324 105.581V87.0467L190.62 86.4958V83.8456H200.923C202.921 83.7911 204.893 84.3191 206.6 85.3662C208.308 86.4132 209.678 87.9345 210.546 89.747C211.499 91.7084 211.974 93.8702 211.931 96.0531V96.5498C211.968 98.7138 211.506 100.857 210.579 102.81C209.737 104.585 208.419 106.088 206.775 107.15C205.057 108.228 203.063 108.778 201.039 108.732L190.62 108.745ZM197.58 105.427H200.819C202.145 105.465 203.445 105.053 204.511 104.258C205.563 103.432 206.372 102.332 206.85 101.078C207.415 99.6383 207.697 98.1018 207.679 96.5539V96.0406C207.704 94.4705 207.422 92.9108 206.85 91.4498C206.372 90.2079 205.563 89.1232 204.511 88.3154C203.439 87.5342 202.142 87.1307 200.819 87.1677H197.58V105.427Z" fill="#F39019"/>
<path d="M227.564 108.745L219.509 86.7755L217.435 86.5V83.8499H226.365V86.4959L224.138 86.8548L229.252 102.021L229.708 103.645H229.812L230.285 102.038L235.466 86.8381L232.919 86.4959V83.8457H241.579V86.4959L239.452 86.7713L231.703 108.741L227.564 108.745Z" fill="#F39019"/>
<path d="M247.656 108.745V106.111L250.339 105.598V87.0131L247.656 86.4998V83.8496H266.383V90.2518H263.065L262.779 87.1592H254.578V94.2041H263.21V97.5429H254.578V105.473H263.227L263.513 102.313H266.789V108.757L247.656 108.745Z" fill="#F39019"/>
<path d="M273.928 108.745V106.111L276.611 105.598V87.0131L273.928 86.4998V83.8496H280.917L292.199 102.025L292.298 101.992V87.0131L289.192 86.4998V83.8496H298.819V86.4956L296.131 87.009V108.74H292.095L280.548 90.6357H280.444V105.577L283.551 106.09V108.724L273.928 108.745Z" fill="#F39019"/>
<path d="M310.938 108.745V106.111L313.622 105.598V87.1509H308.674L308.305 90.3311H305.111V83.8496H326.406V90.3311H323.199L322.826 87.1509H317.878V105.598L320.561 106.111V108.745H310.938Z" fill="#F39019"/>
<path d="M344.689 109.104C343.008 109.137 341.34 108.789 339.811 108.085C338.446 107.458 337.292 106.442 336.493 105.164C335.665 103.764 335.252 102.155 335.303 100.527V87.0131L332.615 86.4998V83.8496H342.225V86.4956L339.542 87.009V100.519C339.507 101.524 339.727 102.522 340.18 103.419C340.587 104.179 341.219 104.791 341.989 105.172C342.837 105.575 343.767 105.774 344.706 105.752C345.664 105.777 346.615 105.578 347.485 105.172C348.258 104.795 348.896 104.185 349.31 103.428C349.772 102.526 349.994 101.52 349.957 100.506V87.0131L347.273 86.4998V83.8496H356.883V86.4956L354.212 87.009V100.519C354.265 102.158 353.852 103.778 353.022 105.189C352.229 106.473 351.074 107.49 349.704 108.11C348.125 108.808 346.413 109.147 344.689 109.104Z" fill="#F39019"/>
<path d="M363.06 108.745V106.111L365.743 105.598V87.0134L363.06 86.5001V83.8499H374.424C376.042 83.8064 377.65 84.1006 379.149 84.7138C380.369 85.2178 381.411 86.0785 382.139 87.1846C382.811 88.3545 383.164 89.6816 383.164 91.0325C383.164 92.3835 382.811 93.7106 382.139 94.8805C381.441 95.9689 380.452 96.837 379.286 97.3846C377.939 98.0109 376.472 98.3287 374.989 98.3153L370.011 98.3654V105.581L372.695 106.095V108.728L363.06 108.745ZM369.999 95.0308H374.238C375.833 95.0308 377.015 94.7038 377.784 94.05C378.177 93.6902 378.484 93.246 378.683 92.7503C378.882 92.2547 378.968 91.7203 378.933 91.1869C378.959 90.6487 378.873 90.1109 378.681 89.6079C378.489 89.1049 378.195 88.6477 377.817 88.2655C377.076 87.5421 375.945 87.1804 374.424 87.1804H369.999V95.0308ZM379.049 108.745L374.354 97.2886L378.34 96.6209L382.326 105.669L384.251 106.086V108.753L379.049 108.745Z" fill="#F39019"/>
<path d="M390.85 108.745V106.111L393.533 105.598V87.0131L390.85 86.4998V83.8496H409.577V90.2518H406.259L405.972 87.1592H397.781V94.2041H406.412V97.5429H397.781V105.473H406.429L406.715 102.313H409.992V108.757L390.85 108.745Z" fill="#F39019"/>
<path d="M98.738 129.329L148.059 0L-0.0166016 155.004L90.1811 86.0035C91.0499 85.3414 92.0863 84.9388 93.1719 84.8415C94.2575 84.7442 95.3484 84.9563 96.3198 85.4535C97.2912 85.9507 98.1039 86.713 98.665 87.6531C99.2262 88.5932 99.513 89.6732 99.4928 90.7697L98.738 129.329ZM85.183 78.4411L124.404 37.378L111.343 71.6383L111.546 61.4257C111.553 61.1324 111.476 60.8433 111.326 60.5921C111.175 60.3409 110.957 60.1379 110.696 60.0067C110.435 59.8755 110.143 59.8215 109.853 59.8511C109.563 59.8807 109.287 59.9925 109.058 60.1737L85.183 78.4411Z" fill="#F39019"/>
<path d="M63.0463 3.70117L17.5161 123.147L74.2744 63.7079L53.8258 73.8788C53.2444 74.1677 52.5938 74.2859 51.9486 74.2199C51.3035 74.1539 50.6898 73.9063 50.1781 73.5055C49.6664 73.1047 49.2772 72.567 49.0553 71.9539C48.8333 71.3408 48.7875 70.6772 48.9231 70.0391L63.0463 3.70117Z" fill="#232323"/>
</g>
<defs>
<clipPath id="clip0_265_12726">
<rect width="410" height="155" fill="white"/>
</clipPath>
</defs>
</svg>
